<svg width="164" height="34" viewBox="0 0 164 34" fill="none" xmlns="http://www.w3.org/2000/svg">
<path d="M155.398 23.7815C156.803 23.7815 157.788 23.2854 158.355 22.2933C158.921 21.3012 159.204 20.2938 159.204 19.271C159.204 18.1051 158.952 17.0618 158.449 16.1413C157.946 15.2208 156.929 14.7606 155.398 14.7606C154.958 14.7606 154.502 14.8373 154.03 14.9907C153.558 15.1441 153.113 15.3538 152.693 15.6197V22.9223C153.113 23.1678 153.558 23.3723 154.03 23.536C154.502 23.6996 154.958 23.7815 155.398 23.7815ZM148.636 11.9377H150.712L151.592 13.0423C152.284 12.5309 153.092 12.1218 154.014 11.815C154.937 11.5081 155.755 11.3547 156.467 11.3547C158.711 11.3547 160.43 12.1116 161.625 13.6253C162.821 15.139 163.418 17.0209 163.418 19.271C163.418 21.5211 162.805 23.403 161.578 24.9167C160.352 26.4305 158.648 27.1873 156.467 27.1873C155.922 27.1873 155.309 27.0953 154.628 26.9112C153.946 26.7271 153.301 26.4713 152.693 26.144V33.2319L148.636 33.5387V11.9377Z" fill="#0065FF"/>
<path d="M121.456 11.2686C125.589 11.3067 129.067 14.0716 131.368 17.4097C132.997 19.8206 134.762 22.426 137.647 23.2651C139.883 23.9161 142.612 22.672 143.286 20.3481C144.172 17.2926 141.009 13.6016 137.095 15.1186C136.126 15.4936 135.277 16.1156 134.514 16.8118L134.344 16.9703L133.541 17.738C133.049 18.1113 133.019 17.3974 132.576 16.7608C132.361 16.4508 132.058 16.042 132.058 16.042L131.391 15.1482C131.282 14.8312 131.839 14.5019 132.214 14.1533C133.894 12.6148 136 11.3524 138.287 11.3019C139.562 11.2734 140.836 11.3395 142.054 11.8391C145.992 13.4528 148.258 18.4127 146.253 22.4695C145.011 24.9798 142.411 26.8879 139.439 26.9115C137.446 26.9271 135.437 26.398 133.724 25.228C131.634 23.8012 130.03 21.7841 128.63 19.7127C127.224 17.6472 125.475 15.6649 123.161 14.9612C120.342 14.1044 116.974 16.3944 117.303 19.6632C117.567 22.2922 120.798 24.3658 123.822 23.0019C124.805 22.5592 125.677 21.9017 126.451 21.1572L127.177 20.4561C127.553 20.1687 127.642 20.6543 127.829 20.9648C128.088 21.379 128.382 21.7722 128.67 22.1681L129.311 23.026C129.482 23.314 128.942 23.6642 128.579 24.0005C126.805 25.626 124.586 26.9094 122.118 26.9137C119.055 26.9196 116.04 25.3832 114.617 22.7644C113.057 19.8926 113.601 16.092 115.885 13.7149C117.318 12.2242 119.327 11.2675 121.456 11.2686Z" fill="#0065FF"/>
<path d="M110.987 5.15597V26.8184H106.929V5.49353L110.987 5.15597Z" fill="#0065FF"/>
<path d="M96.1138 14.7598C94.688 14.7598 93.6973 15.2507 93.1417 16.2326C92.586 17.2145 92.3082 18.2271 92.3082 19.2703C92.3082 20.4363 92.5598 21.4795 93.063 22.4C93.5663 23.3205 94.5831 23.7808 96.1138 23.7808C96.596 23.7808 97.1045 23.6733 97.6392 23.4586C98.1738 23.2438 98.6718 22.9932 99.1331 22.7068V15.8338C98.6718 15.527 98.1738 15.2712 97.6392 15.0667C97.1045 14.8621 96.596 14.7598 96.1138 14.7598ZM103.253 5.15597V26.8184H101.115L99.9823 25.3763C99.2904 25.949 98.4779 26.3939 97.5449 26.711C96.6118 27.0281 95.7678 27.1866 95.013 27.1866C92.7904 27.1866 91.0816 26.4297 89.8864 24.916C88.6913 23.4023 88.0937 21.5204 88.0937 19.2703C88.0937 17.0202 88.728 15.1383 89.9965 13.6246C91.265 12.1109 93.0001 11.354 95.2017 11.354C95.7678 11.354 96.4073 11.4512 97.1202 11.6455C97.8331 11.8399 98.5041 12.1109 99.1331 12.4586V5.49353L103.253 5.15597Z" fill="#0065FF"/>
<path d="M80.1055 27.1863C77.4636 27.1863 75.3825 26.4806 73.8624 25.0692C72.3422 23.6577 71.5822 21.7656 71.5822 19.3928C71.5822 17.0199 72.2689 15.1176 73.6423 13.6857C75.0156 12.2538 76.887 11.5378 79.2563 11.5378C81.6467 11.5378 83.4026 12.31 84.5244 13.8544C85.6462 15.3988 86.207 17.2244 86.207 19.3314V20.5587H75.9225C76.1112 21.5406 76.5724 22.323 77.3063 22.906C78.0402 23.489 79.0047 23.7805 80.1998 23.7805C80.8918 23.7805 81.5156 23.6935 82.0713 23.5196C82.6269 23.3457 83.2716 23.0951 84.0054 22.7679L85.2007 25.6521C84.4878 26.184 83.6228 26.5726 82.6059 26.8181C81.5889 27.0635 80.7555 27.1863 80.1055 27.1863ZM82.3386 17.8893C82.1289 16.8869 81.7514 16.1454 81.2063 15.6647C80.6611 15.184 79.9797 14.9436 79.162 14.9436C78.3232 14.9436 77.6209 15.1942 77.0547 15.6954C76.4886 16.1966 76.1217 16.9278 75.9539 17.8893H82.3386Z" fill="#0065FF"/>
<path d="M63.594 27.1863C60.9521 27.1863 58.8711 26.4806 57.3509 25.0692C55.8308 23.6577 55.0707 21.7656 55.0707 19.3928C55.0707 17.0199 55.7573 15.1176 57.1307 13.6857C58.5041 12.2538 60.3755 11.5378 62.7448 11.5378C65.1351 11.5378 66.8912 12.31 68.0129 13.8544C69.1347 15.3988 69.6956 17.2244 69.6956 19.3314V20.5587H59.4109C59.5996 21.5406 60.061 22.323 60.7948 22.906C61.5287 23.489 62.4932 23.7805 63.6884 23.7805C64.3803 23.7805 65.0041 23.6935 65.5597 23.5196C66.1154 23.3457 66.7601 23.0951 67.494 22.7679L68.6891 25.6521C67.9762 26.184 67.1113 26.5726 66.0944 26.8181C65.0775 27.0635 64.244 27.1863 63.594 27.1863ZM65.827 17.8893C65.6173 16.8869 65.24 16.1454 64.6948 15.6647C64.1497 15.184 63.4682 14.9436 62.6505 14.9436C61.8118 14.9436 61.1093 15.1942 60.5432 15.6954C59.9771 16.1966 59.6102 16.9278 59.4424 17.8893H65.827Z" fill="#0065FF"/>
<path d="M45.2237 10.834C45.2237 9.11574 45.7427 7.76057 46.7806 6.76848C47.8185 5.77639 49.281 5.28034 51.1681 5.28034C51.6503 5.28034 52.1955 5.3724 52.8035 5.5565C53.4116 5.74059 53.8834 5.96562 54.2189 6.23154L53.0552 9.11574C52.7407 8.99301 52.4418 8.89589 52.1588 8.8243C51.8757 8.7527 51.6084 8.71693 51.3568 8.71693C50.6439 8.71693 50.1249 8.96744 49.7999 9.4686C49.4749 9.96976 49.3124 10.609 49.3124 11.3863V12.2454H52.206L53.4955 15.3445H49.3124V26.82H45.2237V15.3445H42.8649V12.2454H45.2237V10.834Z" fill="#0065FF"/>
<path fill-rule="evenodd" clip-rule="evenodd" d="M6.0184 29.3535C2.43115 26.3285 0.159668 21.8577 0.159668 16.8734C0.159668 7.77167 7.73418 0.382172 17.0638 0.382172C26.3935 0.382172 33.968 7.77167 33.968 16.8734C33.968 25.9752 26.3935 33.3647 17.0638 33.3647C13.7492 33.3647 10.6561 32.4319 8.04548 30.8211L8.12545 22.6409C8.12545 20.8109 8.10822 18.9867 8.09965 17.1665C8.09949 17.1158 8.09932 17.0653 8.09949 17.0146C8.10939 15.4277 9.66182 14.0856 11.3481 14.0805C11.3588 14.0805 11.3695 14.0806 11.3803 14.0806C12.7479 14.0954 13.9976 14.9244 14.9158 15.8126C16.2485 17.102 17.084 18.7839 18.5192 20.0769C19.5959 21.0469 20.8528 21.8643 22.3079 22.0646C23.6228 22.2456 24.9431 22.0335 26.0332 21.4162C27.612 20.5222 28.6777 18.7724 28.6068 17.0003C28.5145 14.6943 26.4432 12.5226 24.0459 12.294C23.7009 12.2611 23.3528 12.2653 23.0056 12.265C21.7284 12.2667 20.4625 12.797 19.4106 13.5614C19.0063 13.8553 18.6332 14.1872 18.2627 14.52L18.6614 15.0254C18.9225 15.3609 19.1637 15.7106 19.3927 16.068L19.9065 15.6084C19.9236 15.593 19.9409 15.5776 19.9581 15.5623C21.2919 14.384 23.1792 13.5603 24.8858 14.4718C25.9073 15.0173 26.6197 16.0545 26.5676 17.2396C26.517 18.388 25.7981 19.4951 24.7279 19.9675C23.7293 20.4083 22.541 20.3395 21.5361 19.8702C20.4783 19.3762 19.6026 18.5608 18.8721 17.6514C18.2903 16.9269 17.8088 16.128 17.2072 15.4156C15.9082 13.877 14.1889 12.5155 12.1524 12.2955C11.3343 12.2071 10.5081 12.2112 9.70575 12.4634C7.60345 13.1242 5.94567 15.0909 6.0184 17.3509V29.3535ZM14.7625 18.7065C13.8588 19.5373 12.7729 20.1712 11.513 20.302C10.8025 20.3758 10.086 20.3991 9.36949 20.4184L9.3263 20.4195V22.3219C10.7952 22.3247 12.2844 22.2364 13.6578 21.6558C14.5038 21.2982 15.2889 20.8053 15.9732 20.1993L16.3582 19.8541L15.9593 19.3439C15.7071 19.0146 15.4681 18.6739 15.2436 18.3241L15.2192 18.2857C15.067 18.426 14.9148 18.5662 14.7625 18.7065Z" fill="#0065FF"/>
<path fill-rule="evenodd" clip-rule="evenodd" d="M6.0184 29.3535C2.43115 26.3285 0.159668 21.8577 0.159668 16.8734C0.159668 7.77167 7.73418 0.382172 17.0638 0.382172C26.3935 0.382172 33.968 7.77167 33.968 16.8734C33.968 25.9752 26.3935 33.3647 17.0638 33.3647C13.7492 33.3647 10.6561 32.4319 8.04548 30.8211L8.12545 22.6409C8.12545 20.8109 8.10822 18.9867 8.09965 17.1665C8.09949 17.1158 8.09932 17.0653 8.09949 17.0146C8.10939 15.4277 9.66182 14.0856 11.3481 14.0805C11.3588 14.0805 11.3695 14.0806 11.3803 14.0806C12.7479 14.0954 13.9976 14.9244 14.9158 15.8126C16.2485 17.102 17.084 18.7839 18.5192 20.0769C19.5959 21.0469 20.8528 21.8643 22.3079 22.0646C23.6228 22.2456 24.9431 22.0335 26.0332 21.4162C27.612 20.5222 28.6777 18.7724 28.6068 17.0003C28.5145 14.6943 26.4432 12.5226 24.0459 12.294C23.7009 12.2611 23.3528 12.2653 23.0056 12.265C21.7284 12.2667 20.4625 12.797 19.4106 13.5614C19.0063 13.8553 18.6332 14.1872 18.2627 14.52L18.6614 15.0254C18.9225 15.3609 19.1637 15.7106 19.3927 16.068L19.9065 15.6084C19.9236 15.593 19.9409 15.5776 19.9581 15.5623C21.2919 14.384 23.1792 13.5603 24.8858 14.4718C25.9073 15.0173 26.6197 16.0545 26.5676 17.2396C26.517 18.388 25.7981 19.4951 24.7279 19.9675C23.7293 20.4083 22.541 20.3395 21.5361 19.8702C20.4783 19.3762 19.6026 18.5608 18.8721 17.6514C18.2903 16.9269 17.8088 16.128 17.2072 15.4156C15.9082 13.877 14.1889 12.5155 12.1524 12.2955C11.3343 12.2071 10.5081 12.2112 9.70575 12.4634C7.60345 13.1242 5.94567 15.0909 6.0184 17.3509V29.3535ZM14.7625 18.7065C13.8588 19.5373 12.7729 20.1712 11.513 20.302C10.8025 20.3758 10.086 20.3991 9.36949 20.4184L9.3263 20.4195V22.3219C10.7952 22.3247 12.2844 22.2364 13.6578 21.6558C14.5038 21.2982 15.2889 20.8053 15.9732 20.1993L16.3582 19.8541L15.9593 19.3439C15.7071 19.0146 15.4681 18.6739 15.2436 18.3241L15.2192 18.2857C15.067 18.426 14.9148 18.5662 14.7625 18.7065Z" fill="#0065FF"/>
</svg>
