<svg width="27" height="28" viewBox="0 0 27 28" fill="none" xmlns="http://www.w3.org/2000/svg">
<path d="M22.4867 16.5334C20.4333 16.5334 18.77 18.1967 18.77 20.2467C18.77 20.64 18.83 21.0167 18.9467 21.3734C17.4533 22.6467 15.5233 23.42 13.41 23.42C11.97 23.42 10.62 23.0634 9.43332 22.4367C8.87999 23.71 7.85332 24.7334 6.58332 25.2934C8.59666 26.6167 10.95 27.3334 13.4167 27.3334C16.6233 27.3334 19.65 26.13 21.9667 23.93C22.1367 23.9534 22.31 23.9667 22.4933 23.9667C24.5467 23.9667 26.2067 22.3034 26.2067 20.2534C26.2067 18.2034 24.5367 16.5334 22.4867 16.5334ZM22.49 19.0434C21.8233 19.0434 21.28 19.5834 21.28 20.2534C21.28 20.56 21.0333 20.8067 20.7267 20.8067C20.42 20.8067 20.1733 20.56 20.1733 20.2534C20.1733 18.98 21.2133 17.94 22.4867 17.94C22.7933 17.94 23.04 18.1867 23.04 18.4934C23.0433 18.7967 22.7967 19.0434 22.49 19.0434ZM22.2133 6.07335C20.6867 4.54669 18.8333 3.47002 16.8133 2.89335C16.2367 1.58002 14.93 0.666687 13.41 0.666687C11.3567 0.666687 9.69666 2.33002 9.69666 4.38002C9.69666 6.43002 11.36 8.09335 13.41 8.09335C14.53 8.09335 15.5367 7.59669 16.2167 6.80669C19.5267 7.96002 21.9133 11.0967 21.95 14.7834C22.1267 14.7667 22.3067 14.7567 22.4867 14.7567C23.74 14.7567 24.8933 15.1767 25.82 15.89C25.8467 15.5567 25.8567 15.2167 25.8567 14.8767C25.8633 11.55 24.5667 8.42002 22.2133 6.07335ZM13.3933 3.16002C12.7267 3.16002 12.1833 3.70002 12.1833 4.37002C12.1833 4.67669 11.9367 4.92335 11.63 4.92335C11.3233 4.92335 11.0767 4.67669 11.0767 4.37002C11.0767 3.09669 12.1167 2.05669 13.39 2.05669C13.6967 2.05669 13.9433 2.30335 13.9433 2.61002C13.95 2.91669 13.7 3.16002 13.3933 3.16002ZM5.03999 16.5934C4.92666 16.0367 4.86332 15.46 4.86332 14.8767C4.86332 11.7967 6.49999 9.09335 8.94999 7.59002C8.29999 6.68669 7.90999 5.57669 7.90999 4.38002C7.90999 4.14002 7.92666 3.90335 7.95332 3.67335C6.72666 4.27002 5.58999 5.07335 4.59999 6.07002C2.24666 8.42002 0.94999 11.5434 0.94999 14.87C0.94999 15.97 1.09332 17.0434 1.36666 18.0767C0.92999 18.6834 0.666656 19.4334 0.666656 20.2434C0.666656 22.2967 2.32999 23.9567 4.37999 23.9567C6.42999 23.9567 8.09332 22.2934 8.09332 20.2434C8.10332 18.42 6.77666 16.9 5.03999 16.5934ZM4.38332 19.0434C3.71666 19.0434 3.17332 19.5834 3.17332 20.2534C3.17332 20.56 2.92666 20.8067 2.61999 20.8067C2.31332 20.8067 2.06666 20.56 2.06666 20.2534C2.06666 18.98 3.10666 17.94 4.37999 17.94C4.68666 17.94 4.93332 18.1867 4.93332 18.4934C4.93332 18.7967 4.68666 19.0434 4.38332 19.0434Z" fill="#0065FF"/>
</svg>
